<svg width="1161" height="296" xmlns="http://www.w3.org/2000/svg" xmlns:xlink="http://www.w3.org/1999/xlink" xml:space="preserve" overflow="hidden"><defs><clipPath id="clip0"><rect x="69" y="212" width="1161" height="296"/></clipPath></defs><g clip-path="url(#clip0)" transform="translate(-69 -212)"><path d="M182.15 491.844C322.288 480.388 593.852 476.631 714.339 436.248 834.829 395.866 798.006 287.122 905.077 249.548 1012.15 211.974 1247.26 210.588 1356.77 210.807" stroke="#FF0000" stroke-width="10.5013" stroke-miterlimit="8" fill="none" fill-rule="evenodd" transform="matrix(1 0 0 1.00018 -98.1612 8.42839)"/><path d="M202.007 489.935C342.145 478.479 628.583 476.146 748.634 435.652 868.685 395.156 816.331 276.886 922.311 246.971 1028.29 217.057 1267.11 208.666 1376.63 208.885" stroke="#C00000" stroke-width="10.5013" stroke-miterlimit="8" fill="none" fill-rule="evenodd" transform="matrix(1 0 0 1.00018 -98.1612 8.42839)"/><path d="M99.2853 494.135C239.423 482.679 525.861 480.346 645.912 439.853 765.963 399.356 713.609 281.086 819.589 251.172 925.568 221.258 1164.39 212.867 1273.91 213.086" stroke="#C00000" stroke-width="10.5013" stroke-miterlimit="8" fill="none" fill-rule="evenodd" transform="matrix(1 0 0 1.00018 -98.1612 8.42839)"/><path d="M134.799 493.372C274.937 481.916 546.501 478.158 666.987 437.776 787.478 397.393 750.654 288.649 857.726 251.075 964.797 213.502 1199.91 212.115 1309.42 212.335" stroke="#FF0000" stroke-width="10.5013" stroke-miterlimit="8" fill="none" fill-rule="evenodd" transform="matrix(1 0 0 1.00018 -98.1612 8.42839)"/><path d="M157.138 492.035C297.322 480.579 549.827 475.619 674.403 435.126 798.976 394.632 792.339 277.891 904.589 249.071 1016.84 220.251 1222.59 210.766 1332.14 210.985" stroke="#00B0F0" stroke-width="14.0018" stroke-miterlimit="8" fill="none" fill-rule="evenodd" transform="matrix(1 0 0 1.00018 -98.1612 8.42839)"/></g></svg>