<svg width="1004" height="409" xmlns="http://www.w3.org/2000/svg" xmlns:xlink="http://www.w3.org/1999/xlink" xml:space="preserve" overflow="hidden"><defs><clipPath id="clip0"><rect x="113" y="133" width="1004" height="409"/></clipPath></defs><g clip-path="url(#clip0)" transform="translate(-113 -133)"><path d="M251.045 677.874C444.187 662.085 818.465 656.907 984.523 601.25 1150.59 545.594 1099.84 395.72 1247.4 343.934 1394.97 292.149 1719.01 290.239 1869.94 290.541" stroke="#FF0000" stroke-width="14.4733" stroke-miterlimit="8" fill="none" fill-rule="evenodd" transform="matrix(1 0 0 1.00016 -440.713 -147.036)"/><path d="M278.413 675.243C471.555 659.454 866.332 656.238 1031.79 600.429 1197.25 544.615 1125.09 381.612 1271.16 340.383 1417.22 299.155 1746.37 287.59 1897.31 287.892" stroke="#C00000" stroke-width="14.4733" stroke-miterlimit="8" fill="none" fill-rule="evenodd" transform="matrix(1 0 0 1.00016 -440.713 -147.036)"/><path d="M136.838 681.032C329.98 665.243 724.757 662.028 890.215 606.219 1055.67 550.405 983.518 387.402 1129.58 346.173 1275.65 304.944 1604.8 293.38 1755.74 293.681" stroke="#C00000" stroke-width="14.4733" stroke-miterlimit="8" fill="none" fill-rule="evenodd" transform="matrix(1 0 0 1.00016 -440.713 -147.036)"/><path d="M185.784 679.98C378.926 664.191 753.204 659.012 919.262 603.356 1085.33 547.699 1034.57 397.825 1182.14 346.04 1329.71 294.254 1653.75 292.344 1804.68 292.646" stroke="#FF0000" stroke-width="14.4733" stroke-miterlimit="8" fill="none" fill-rule="evenodd" transform="matrix(1 0 0 1.00016 -440.713 -147.036)"/><path d="M216.572 678.138C409.778 662.349 757.788 655.512 929.483 599.703 1101.17 543.894 1092.03 382.998 1246.73 343.278 1401.44 303.557 1685.01 290.484 1836 290.786" stroke="#00B0F0" stroke-width="21.7099" stroke-miterlimit="8" fill="none" fill-rule="evenodd" transform="matrix(1 0 0 1.00016 -440.713 -147.036)"/></g></svg>